<?xml version="1.0" encoding="utf-8"?>
<!-- Generator: Adobe Illustrator 14.0.0, SVG Export Plug-In . SVG Version: 6.00 Build 43363)  -->
<!DOCTYPE svg PUBLIC "-//W3C//DTD SVG 1.1//EN" "http://www.w3.org/Graphics/SVG/1.1/DTD/svg11.dtd">
<svg version="1.1" id="Layer_2" xmlns="http://www.w3.org/2000/svg" xmlns:xlink="http://www.w3.org/1999/xlink" x="0px" y="0px"
	 width="989px" height="720px" viewBox="0 0 989 720" enable-background="new 0 0 989 720" xml:space="preserve">
<g>
	<g>
		<g id="XMLID_1_">
			<path fill="#4B4747" d="M305.225,273.6c2.48-6.029,4.63-11.899,6.44-17.609c0.109-0.33,0.22-0.66,0.319-0.98
				c0.11-0.38,0.23-0.76,0.341-1.13c1.59-5.68,0.739-9.16-3.42-11.8c3.84-14.17,5.6-26.521,5.6-38.84
				c0.01-17.38-3.53-31.85-9.49-45.38c-4.47-10.15-10.27-19.21-16.89-27.26c-9.92-12.09-21.641-21.93-33.55-30.07
				c-8.16-5.57-16.42-10.35-24.291-14.47c2.99-4.23,5.791-8.3,7.64-11.33c0.12-0.19,0.23-0.36,0.33-0.54
				c2.18-4.51-5.04-12.52-16.14-17.9c-11.09-5.37-21.86-6.07-24.04-1.57c-0.06,0.16-0.12,0.33-0.19,0.49
				c-3.94,10.63-10.23,35.73-11.71,37.2c-1.49,1.5-30.9-6.22-51.93,34.3c3.67-6.62,16.33-7.71,31.85-3.68
				c6.35,1.64,13.18,4.14,20.07,7.48c6.89,3.34,13.09,7.14,18.32,11.1v0.01c12.76,9.66,19.75,20.25,16.87,27.24
				c18.72-41.59-5.55-59.89-5.3-61.98c0.08-0.66,1.79-3.28,4.27-6.84c6.86,3.52,14,7.53,21.01,12.09
				c14.67,9.54,28.8,21.51,39.12,36.51c5.17,7.5,9.41,15.76,12.38,24.95c2.97,9.2,4.67,18.33,4.67,29.65
				c0,10.59-1.5,21.319-4.92,34.069c-4.96-0.09-6.98,1.99-7.72,4.48c-2.091,6.83-4.721,13.99-7.931,21.479
				c-5.35-1.029-11-1.619-16.84-1.619c-33.95,0-61.47,20.02-61.47,28.13c0,8.109,27.52,14.68,61.47,14.68
				c33.96,0,61.48-6.57,61.48-14.68C321.576,285.93,315.375,279.39,305.225,273.6z"/>
			<path fill="#FEE1B0" d="M204.485,141.62c12.76,9.66,19.75,20.25,16.87,27.24c-0.06,0.15-0.13,0.3-0.2,0.45
				c-4.74,9.77-28.08,8.25-52.13-3.41c-24.06-11.65-39.72-29.02-34.99-38.79c0.07-0.14,0.14-0.27,0.21-0.4
				c3.67-6.62,16.33-7.71,31.85-3.68c-0.87,2.33-1.35,4.85-1.35,7.48c0,11.83,9.59,21.42,21.42,21.42
				C193.925,151.93,200.725,147.8,204.485,141.62z"/>
			<path fill="#FFFFFF" d="M204.485,141.61v0.01c-3.76,6.18-10.56,10.31-18.32,10.31c-11.83,0-21.42-9.59-21.42-21.42
				c0-2.63,0.48-5.15,1.35-7.48c6.35,1.64,13.18,4.14,20.07,7.48C193.055,133.85,199.255,137.65,204.485,141.61z"/>
		</g>
	</g>
	<g>
		<path fill="#F8B6A8" d="M198.724,234.298c-1.296-4.5-4.306-8.505-8.683-10.371c-3.881-1.653-8.832-1.718-12.943-0.442v-8.622
			c0-4.694-16.342-8.5-36.5-8.5s-36.5,3.806-36.5,8.5v68.75c0,4.694,16.342,8.5,36.5,8.5s36.5-3.806,36.5-8.5v-11.197
			c2.352-4.222,5.266-8.02,8.789-11.338c3.749-3.53,7.822-6.684,10.594-11.104C199.436,245.262,200.261,239.665,198.724,234.298z
			 M190.439,240.88c-0.277,2.735-1.885,5.077-3.688,7.071c-1.85,2.048-4.004,3.795-6.039,5.65c-1.25,1.141-2.457,2.326-3.615,3.559
			v-23.596c0.932-0.75,1.965-1.351,3.203-1.632c2.389-0.543,5.672-0.553,7.602,1.159C190.008,234.96,190.715,238.178,190.439,240.88
			z"/>
		<path fill="none" stroke="#FCD7CD" stroke-linecap="round" stroke-linejoin="round" d="M170.865,219.615
			c-6.56,2.261-17.668,3.748-30.268,3.748c-12.588,0-23.689-1.484-30.25-3.742"/>
	</g>
</g>
</svg>
